<svg xmlns="http://www.w3.org/2000/svg" viewBox="0 0 720 180" role="img" aria-labelledby="title desc">
  <title id="title">Cellular automaton pattern</title>
  <desc id="desc">A small static cellular automaton pattern used as a profile decoration.</desc>
  <rect width="720" height="180" rx="18" fill="#f7f5ee"/>
  <g fill="#211f1b" opacity="0.06">
    <path d="M0 42h720v1H0zM0 84h720v1H0zM0 126h720v1H0zM120 0h1v180h-1zM240 0h1v180h-1zM360 0h1v180h-1zM480 0h1v180h-1zM600 0h1v180h-1z"/>
  </g>
  <g fill="#b1442f">
    <rect x="147" y="63" width="10" height="10" rx="2"/>
    <rect x="159" y="75" width="10" height="10" rx="2"/>
    <rect x="135" y="87" width="10" height="10" rx="2"/>
    <rect x="147" y="87" width="10" height="10" rx="2"/>
    <rect x="159" y="87" width="10" height="10" rx="2"/>
    <rect x="411" y="63" width="10" height="10" rx="2"/>
    <rect x="423" y="75" width="10" height="10" rx="2"/>
    <rect x="399" y="87" width="10" height="10" rx="2"/>
    <rect x="411" y="87" width="10" height="10" rx="2"/>
    <rect x="423" y="87" width="10" height="10" rx="2"/>
  </g>
  <g fill="#2d675c">
    <rect x="285" y="75" width="10" height="10" rx="2"/>
    <rect x="297" y="75" width="10" height="10" rx="2"/>
    <rect x="285" y="87" width="10" height="10" rx="2"/>
    <rect x="297" y="87" width="10" height="10" rx="2"/>
    <rect x="549" y="75" width="10" height="10" rx="2"/>
    <rect x="561" y="75" width="10" height="10" rx="2"/>
    <rect x="549" y="87" width="10" height="10" rx="2"/>
    <rect x="561" y="87" width="10" height="10" rx="2"/>
  </g>
  <g fill="#211f1b" opacity="0.62">
    <rect x="225" y="51" width="8" height="8" rx="2"/>
    <rect x="237" y="51" width="8" height="8" rx="2"/>
    <rect x="213" y="63" width="8" height="8" rx="2"/>
    <rect x="225" y="75" width="8" height="8" rx="2"/>
    <rect x="237" y="75" width="8" height="8" rx="2"/>
    <rect x="489" y="51" width="8" height="8" rx="2"/>
    <rect x="501" y="51" width="8" height="8" rx="2"/>
    <rect x="477" y="63" width="8" height="8" rx="2"/>
    <rect x="489" y="75" width="8" height="8" rx="2"/>
    <rect x="501" y="75" width="8" height="8" rx="2"/>
  </g>
  <text x="360" y="144" text-anchor="middle" fill="#686257" font-family="-apple-system, BlinkMacSystemFont, Segoe UI, sans-serif" font-size="13">B3/S23 · static profile automaton</text>
</svg>
