<svg xmlns="http://www.w3.org/2000/svg" viewBox="0 0 720 180" role="img" aria-labelledby="title desc">
<title id="title">Animated cellular automaton pattern</title>
<desc id="desc">A looping Conway Life pattern generated by MoonBit for the profile README.</desc>
<rect width="720" height="180" rx="18" fill="#f7f5ee"/>
<g opacity="0.06" fill="#211f1b">
<rect x="84" y="31" width="558" height="1"/>
<rect x="84" y="45" width="558" height="1"/>
<rect x="84" y="59" width="558" height="1"/>
<rect x="84" y="73" width="558" height="1"/>
<rect x="84" y="87" width="558" height="1"/>
<rect x="84" y="101" width="558" height="1"/>
<rect x="84" y="115" width="558" height="1"/>
<rect x="84" y="129" width="558" height="1"/>
<rect x="84" y="143" width="558" height="1"/>
<rect x="84" y="157" width="558" height="1"/>
<rect x="84" y="171" width="558" height="1"/>
<rect x="83" y="32" width="1" height="138"/>
<rect x="97" y="32" width="1" height="138"/>
<rect x="111" y="32" width="1" height="138"/>
<rect x="125" y="32" width="1" height="138"/>
<rect x="139" y="32" width="1" height="138"/>
<rect x="153" y="32" width="1" height="138"/>
<rect x="167" y="32" width="1" height="138"/>
<rect x="181" y="32" width="1" height="138"/>
<rect x="195" y="32" width="1" height="138"/>
<rect x="209" y="32" width="1" height="138"/>
<rect x="223" y="32" width="1" height="138"/>
<rect x="237" y="32" width="1" height="138"/>
<rect x="251" y="32" width="1" height="138"/>
<rect x="265" y="32" width="1" height="138"/>
<rect x="279" y="32" width="1" height="138"/>
<rect x="293" y="32" width="1" height="138"/>
<rect x="307" y="32" width="1" height="138"/>
<rect x="321" y="32" width="1" height="138"/>
<rect x="335" y="32" width="1" height="138"/>
<rect x="349" y="32" width="1" height="138"/>
<rect x="363" y="32" width="1" height="138"/>
<rect x="377" y="32" width="1" height="138"/>
<rect x="391" y="32" width="1" height="138"/>
<rect x="405" y="32" width="1" height="138"/>
<rect x="419" y="32" width="1" height="138"/>
<rect x="433" y="32" width="1" height="138"/>
<rect x="447" y="32" width="1" height="138"/>
<rect x="461" y="32" width="1" height="138"/>
<rect x="475" y="32" width="1" height="138"/>
<rect x="489" y="32" width="1" height="138"/>
<rect x="503" y="32" width="1" height="138"/>
<rect x="517" y="32" width="1" height="138"/>
<rect x="531" y="32" width="1" height="138"/>
<rect x="545" y="32" width="1" height="138"/>
<rect x="559" y="32" width="1" height="138"/>
<rect x="573" y="32" width="1" height="138"/>
<rect x="587" y="32" width="1" height="138"/>
<rect x="601" y="32" width="1" height="138"/>
<rect x="615" y="32" width="1" height="138"/>
<rect x="629" y="32" width="1" height="138"/>
<rect x="643" y="32" width="1" height="138"/>
</g>
<g opacity="1">
<animate attributeName="opacity" values="1;0;0;0;0;0;0;0;1" keyTimes="0;0.125;0.25;0.375;0.5;0.625;0.75;0.875;1" dur="4.8s" repeatCount="indefinite"/>
<rect x="154" y="60" width="12" height="12" rx="2" fill="#b1442f"/>
<rect x="168" y="74" width="12" height="12" rx="2" fill="#2d675c"/>
<rect x="140" y="88" width="12" height="12" rx="2" fill="#2d675c"/>
<rect x="154" y="88" width="12" height="12" rx="2" fill="#b1442f"/>
<rect x="168" y="88" width="12" height="12" rx="2" fill="#2d675c"/>
<rect x="476" y="60" width="12" height="12" rx="2" fill="#2d675c"/>
<rect x="490" y="74" width="12" height="12" rx="2" fill="#b1442f"/>
<rect x="462" y="88" width="12" height="12" rx="2" fill="#2d675c"/>
<rect x="476" y="88" width="12" height="12" rx="2" fill="#2d675c"/>
<rect x="490" y="88" width="12" height="12" rx="2" fill="#b1442f"/>
<rect x="294" y="102" width="12" height="12" rx="2" fill="#2d675c"/>
<rect x="308" y="102" width="12" height="12" rx="2" fill="#2d675c"/>
<rect x="322" y="102" width="12" height="12" rx="2" fill="#b1442f"/>
<rect x="560" y="102" width="12" height="12" rx="2" fill="#2d675c"/>
<rect x="574" y="102" width="12" height="12" rx="2" fill="#2d675c"/>
<rect x="588" y="102" width="12" height="12" rx="2" fill="#b1442f"/>
</g>
<g opacity="0">
<animate attributeName="opacity" values="0;1;0;0;0;0;0;0;0" keyTimes="0;0.125;0.25;0.375;0.5;0.625;0.75;0.875;1" dur="4.8s" repeatCount="indefinite"/>
<rect x="140" y="74" width="12" height="12" rx="2" fill="#b1442f"/>
<rect x="168" y="74" width="12" height="12" rx="2" fill="#2d675c"/>
<rect x="462" y="74" width="12" height="12" rx="2" fill="#2d675c"/>
<rect x="490" y="74" width="12" height="12" rx="2" fill="#b1442f"/>
<rect x="154" y="88" width="12" height="12" rx="2" fill="#2d675c"/>
<rect x="168" y="88" width="12" height="12" rx="2" fill="#2d675c"/>
<rect x="308" y="88" width="12" height="12" rx="2" fill="#b1442f"/>
<rect x="476" y="88" width="12" height="12" rx="2" fill="#2d675c"/>
<rect x="490" y="88" width="12" height="12" rx="2" fill="#2d675c"/>
<rect x="574" y="88" width="12" height="12" rx="2" fill="#b1442f"/>
<rect x="154" y="102" width="12" height="12" rx="2" fill="#2d675c"/>
<rect x="308" y="102" width="12" height="12" rx="2" fill="#2d675c"/>
<rect x="476" y="102" width="12" height="12" rx="2" fill="#b1442f"/>
<rect x="574" y="102" width="12" height="12" rx="2" fill="#2d675c"/>
<rect x="308" y="116" width="12" height="12" rx="2" fill="#2d675c"/>
<rect x="574" y="116" width="12" height="12" rx="2" fill="#b1442f"/>
</g>
<g opacity="0">
<animate attributeName="opacity" values="0;0;1;0;0;0;0;0;0" keyTimes="0;0.125;0.25;0.375;0.5;0.625;0.75;0.875;1" dur="4.8s" repeatCount="indefinite"/>
<rect x="168" y="74" width="12" height="12" rx="2" fill="#b1442f"/>
<rect x="490" y="74" width="12" height="12" rx="2" fill="#2d675c"/>
<rect x="140" y="88" width="12" height="12" rx="2" fill="#2d675c"/>
<rect x="168" y="88" width="12" height="12" rx="2" fill="#b1442f"/>
<rect x="462" y="88" width="12" height="12" rx="2" fill="#2d675c"/>
<rect x="490" y="88" width="12" height="12" rx="2" fill="#2d675c"/>
<rect x="154" y="102" width="12" height="12" rx="2" fill="#b1442f"/>
<rect x="168" y="102" width="12" height="12" rx="2" fill="#2d675c"/>
<rect x="294" y="102" width="12" height="12" rx="2" fill="#2d675c"/>
<rect x="308" y="102" width="12" height="12" rx="2" fill="#b1442f"/>
<rect x="322" y="102" width="12" height="12" rx="2" fill="#2d675c"/>
<rect x="476" y="102" width="12" height="12" rx="2" fill="#2d675c"/>
<rect x="490" y="102" width="12" height="12" rx="2" fill="#b1442f"/>
<rect x="560" y="102" width="12" height="12" rx="2" fill="#2d675c"/>
<rect x="574" y="102" width="12" height="12" rx="2" fill="#2d675c"/>
<rect x="588" y="102" width="12" height="12" rx="2" fill="#b1442f"/>
</g>
<g opacity="0">
<animate attributeName="opacity" values="0;0;0;1;0;0;0;0;0" keyTimes="0;0.125;0.25;0.375;0.5;0.625;0.75;0.875;1" dur="4.8s" repeatCount="indefinite"/>
<rect x="154" y="74" width="12" height="12" rx="2" fill="#b1442f"/>
<rect x="476" y="74" width="12" height="12" rx="2" fill="#2d675c"/>
<rect x="168" y="88" width="12" height="12" rx="2" fill="#2d675c"/>
<rect x="182" y="88" width="12" height="12" rx="2" fill="#b1442f"/>
<rect x="308" y="88" width="12" height="12" rx="2" fill="#2d675c"/>
<rect x="490" y="88" width="12" height="12" rx="2" fill="#2d675c"/>
<rect x="504" y="88" width="12" height="12" rx="2" fill="#b1442f"/>
<rect x="574" y="88" width="12" height="12" rx="2" fill="#2d675c"/>
<rect x="154" y="102" width="12" height="12" rx="2" fill="#2d675c"/>
<rect x="168" y="102" width="12" height="12" rx="2" fill="#b1442f"/>
<rect x="308" y="102" width="12" height="12" rx="2" fill="#2d675c"/>
<rect x="476" y="102" width="12" height="12" rx="2" fill="#2d675c"/>
<rect x="490" y="102" width="12" height="12" rx="2" fill="#b1442f"/>
<rect x="574" y="102" width="12" height="12" rx="2" fill="#2d675c"/>
<rect x="308" y="116" width="12" height="12" rx="2" fill="#2d675c"/>
<rect x="574" y="116" width="12" height="12" rx="2" fill="#b1442f"/>
</g>
<g opacity="0">
<animate attributeName="opacity" values="0;0;0;0;1;0;0;0;0" keyTimes="0;0.125;0.25;0.375;0.5;0.625;0.75;0.875;1" dur="4.8s" repeatCount="indefinite"/>
<rect x="168" y="74" width="12" height="12" rx="2" fill="#b1442f"/>
<rect x="490" y="74" width="12" height="12" rx="2" fill="#2d675c"/>
<rect x="182" y="88" width="12" height="12" rx="2" fill="#2d675c"/>
<rect x="504" y="88" width="12" height="12" rx="2" fill="#b1442f"/>
<rect x="154" y="102" width="12" height="12" rx="2" fill="#2d675c"/>
<rect x="168" y="102" width="12" height="12" rx="2" fill="#2d675c"/>
<rect x="182" y="102" width="12" height="12" rx="2" fill="#b1442f"/>
<rect x="294" y="102" width="12" height="12" rx="2" fill="#2d675c"/>
<rect x="308" y="102" width="12" height="12" rx="2" fill="#2d675c"/>
<rect x="322" y="102" width="12" height="12" rx="2" fill="#b1442f"/>
<rect x="476" y="102" width="12" height="12" rx="2" fill="#2d675c"/>
<rect x="490" y="102" width="12" height="12" rx="2" fill="#2d675c"/>
<rect x="504" y="102" width="12" height="12" rx="2" fill="#b1442f"/>
<rect x="560" y="102" width="12" height="12" rx="2" fill="#2d675c"/>
<rect x="574" y="102" width="12" height="12" rx="2" fill="#2d675c"/>
<rect x="588" y="102" width="12" height="12" rx="2" fill="#b1442f"/>
</g>
<g opacity="0">
<animate attributeName="opacity" values="0;0;0;0;0;1;0;0;0" keyTimes="0;0.125;0.25;0.375;0.5;0.625;0.75;0.875;1" dur="4.8s" repeatCount="indefinite"/>
<rect x="154" y="88" width="12" height="12" rx="2" fill="#b1442f"/>
<rect x="182" y="88" width="12" height="12" rx="2" fill="#2d675c"/>
<rect x="308" y="88" width="12" height="12" rx="2" fill="#2d675c"/>
<rect x="476" y="88" width="12" height="12" rx="2" fill="#b1442f"/>
<rect x="504" y="88" width="12" height="12" rx="2" fill="#2d675c"/>
<rect x="574" y="88" width="12" height="12" rx="2" fill="#2d675c"/>
<rect x="168" y="102" width="12" height="12" rx="2" fill="#b1442f"/>
<rect x="182" y="102" width="12" height="12" rx="2" fill="#2d675c"/>
<rect x="308" y="102" width="12" height="12" rx="2" fill="#2d675c"/>
<rect x="490" y="102" width="12" height="12" rx="2" fill="#b1442f"/>
<rect x="504" y="102" width="12" height="12" rx="2" fill="#2d675c"/>
<rect x="574" y="102" width="12" height="12" rx="2" fill="#2d675c"/>
<rect x="168" y="116" width="12" height="12" rx="2" fill="#b1442f"/>
<rect x="308" y="116" width="12" height="12" rx="2" fill="#2d675c"/>
<rect x="490" y="116" width="12" height="12" rx="2" fill="#2d675c"/>
<rect x="574" y="116" width="12" height="12" rx="2" fill="#b1442f"/>
</g>
<g opacity="0">
<animate attributeName="opacity" values="0;0;0;0;0;0;1;0;0" keyTimes="0;0.125;0.25;0.375;0.5;0.625;0.75;0.875;1" dur="4.8s" repeatCount="indefinite"/>
<rect x="182" y="88" width="12" height="12" rx="2" fill="#b1442f"/>
<rect x="504" y="88" width="12" height="12" rx="2" fill="#2d675c"/>
<rect x="154" y="102" width="12" height="12" rx="2" fill="#2d675c"/>
<rect x="182" y="102" width="12" height="12" rx="2" fill="#b1442f"/>
<rect x="294" y="102" width="12" height="12" rx="2" fill="#2d675c"/>
<rect x="308" y="102" width="12" height="12" rx="2" fill="#2d675c"/>
<rect x="322" y="102" width="12" height="12" rx="2" fill="#b1442f"/>
<rect x="476" y="102" width="12" height="12" rx="2" fill="#2d675c"/>
<rect x="504" y="102" width="12" height="12" rx="2" fill="#2d675c"/>
<rect x="560" y="102" width="12" height="12" rx="2" fill="#b1442f"/>
<rect x="574" y="102" width="12" height="12" rx="2" fill="#2d675c"/>
<rect x="588" y="102" width="12" height="12" rx="2" fill="#2d675c"/>
<rect x="168" y="116" width="12" height="12" rx="2" fill="#b1442f"/>
<rect x="182" y="116" width="12" height="12" rx="2" fill="#2d675c"/>
<rect x="490" y="116" width="12" height="12" rx="2" fill="#2d675c"/>
<rect x="504" y="116" width="12" height="12" rx="2" fill="#b1442f"/>
</g>
<g opacity="0">
<animate attributeName="opacity" values="0;0;0;0;0;0;0;1;0" keyTimes="0;0.125;0.25;0.375;0.5;0.625;0.75;0.875;1" dur="4.8s" repeatCount="indefinite"/>
<rect x="168" y="88" width="12" height="12" rx="2" fill="#b1442f"/>
<rect x="308" y="88" width="12" height="12" rx="2" fill="#2d675c"/>
<rect x="490" y="88" width="12" height="12" rx="2" fill="#2d675c"/>
<rect x="574" y="88" width="12" height="12" rx="2" fill="#b1442f"/>
<rect x="182" y="102" width="12" height="12" rx="2" fill="#2d675c"/>
<rect x="196" y="102" width="12" height="12" rx="2" fill="#2d675c"/>
<rect x="308" y="102" width="12" height="12" rx="2" fill="#b1442f"/>
<rect x="504" y="102" width="12" height="12" rx="2" fill="#2d675c"/>
<rect x="518" y="102" width="12" height="12" rx="2" fill="#2d675c"/>
<rect x="574" y="102" width="12" height="12" rx="2" fill="#b1442f"/>
<rect x="168" y="116" width="12" height="12" rx="2" fill="#2d675c"/>
<rect x="182" y="116" width="12" height="12" rx="2" fill="#2d675c"/>
<rect x="308" y="116" width="12" height="12" rx="2" fill="#b1442f"/>
<rect x="490" y="116" width="12" height="12" rx="2" fill="#2d675c"/>
<rect x="504" y="116" width="12" height="12" rx="2" fill="#2d675c"/>
<rect x="574" y="116" width="12" height="12" rx="2" fill="#b1442f"/>
</g>
<text x="360" y="164" text-anchor="middle" fill="#686257" font-family="-apple-system, BlinkMacSystemFont, Segoe UI, sans-serif" font-size="13">B3/S23 · generated with MoonBit</text>
</svg>
